Dummy-ExtraMinus.ufo
<glyph name="a" format="2">
	<unicode hex="0061"/>
	<advance width="476"/>
	<outline>
		<contour>
			<point x="200" y="-12" type="curve" smooth="yes"/>
			<point x="266" y="-12"/>
			<point x="329" y="26"/>
			<point x="381" y="67" type="curve"/>
			<point x="383" y="67" type="line"/>
			<point x="385" y="0" type="line"/>
			<point x="388" y="0" type="line"/>
			<point x="388" y="316" type="line" smooth="yes"/>
			<point x="388" y="399"/>
			<point x="363" y="486"/>
			<point x="255" y="486" type="curve" smooth="yes"/>
			<point x="177" y="486"/>
			<point x="112" y="442"/>
			<point x="90" y="424" type="curve"/>
			<point x="97" y="418" type="line"/>
			<point x="123" y="441"/>
			<point x="185" y="479"/>
			<point x="259" y="479" type="curve" smooth="yes"/>
			<point x="370" y="479"/>
			<point x="390" y="379"/>
			<point x="387" y="293" type="curve"/>
			<point x="166" y="268"/>
			<point x="64" y="220"/>
			<point x="64" y="112" type="curve" smooth="yes"/>
			<point x="64" y="19"/>
			<point x="130" y="-12"/>
		</contour>
		<contour>
			<point x="190" y="-5" type="curve" smooth="yes"/>
			<point x="127" y="-5"/>
			<point x="70" y="26"/>
			<point x="70" y="110" type="curve" smooth="yes"/>
			<point x="70" y="203"/>
			<point x="151" y="256"/>
			<point x="387" y="282" type="curve"/>
			<point x="387" y="87" type="line"/>
			<point x="314" y="26"/>
			<point x="254" y="-5"/>
		</contour>
	</outline>
	<anchor name="aboveLC" x="255" y="498"/>
	<anchor name="belowLC" x="237" y="-22"/>
	<anchor name="ogonekLC" x="399" y="0"/>
</glyph>
<glyph name="b" format="2">
	<unicode hex="0062"/>
	<advance width="530"/>
	<outline>
		<contour>
			<point x="262" y="-12" type="curve" smooth="yes"/>
			<point x="377" y="-12"/>
			<point x="474" y="84"/>
			<point x="474" y="243" type="curve" smooth="yes"/>
			<point x="474" y="390"/>
			<point x="415" y="486"/>
			<point x="283" y="486" type="curve" smooth="yes"/>
			<point x="220" y="486"/>
			<point x="157" y="446"/>
			<point x="104" y="402" type="curve"/>
			<point x="105" y="503" type="line"/>
			<point x="105" y="727" type="line"/>
			<point x="104" y="727" type="line"/>
			<point x="104" y="0" type="line"/>
			<point x="108" y="0" type="line"/>
			<point x="110" y="47" type="line"/>
			<point x="112" y="47" type="line"/>
			<point x="159" y="12"/>
			<point x="215" y="-12"/>
		</contour>
		<contour>
			<point x="272" y="-6" type="curve" smooth="yes"/>
			<point x="231" y="-6"/>
			<point x="168" y="14"/>
			<point x="105" y="68" type="curve"/>
			<point x="105" y="386" type="line"/>
			<point x="173" y="446"/>
			<point x="236" y="480"/>
			<point x="291" y="480" type="curve" smooth="yes"/>
			<point x="423" y="480"/>
			<point x="471" y="374"/>
			<point x="471" y="244" type="curve" smooth="yes"/>
			<point x="471" y="102"/>
			<point x="389" y="-6"/>
		</contour>
	</outline>
	<anchor name="aboveLC" x="108" y="730"/>
	<anchor name="belowLC" x="272" y="-22"/>
</glyph>
<glyph name="c" format="2">
	<unicode hex="0063"/>
	<advance width="441"/>
	<outline>
		<contour>
			<point x="265" y="-12" type="curve" smooth="yes"/>
			<point x="329" y="-12"/>
			<point x="376" y="19"/>
			<point x="414" y="53" type="curve"/>
			<point x="406" y="57" type="line"/>
			<point x="370" y="22"/>
			<point x="320" y="-6"/>
			<point x="261" y="-6" type="curve" smooth="yes"/>
			<point x="140" y="-6"/>
			<point x="62" y="92"/>
			<point x="62" y="236" type="curve" smooth="yes"/>
			<point x="62" y="379"/>
			<point x="150" y="480"/>
			<point x="260" y="480" type="curve" smooth="yes"/>
			<point x="316" y="480"/>
			<point x="358" y="452"/>
			<point x="392" y="420" type="curve"/>
			<point x="400" y="424" type="line"/>
			<point x="370" y="454"/>
			<point x="329" y="486"/>
			<point x="262" y="486" type="curve" smooth="yes"/>
			<point x="153" y="486"/>
			<point x="58" y="394"/>
			<point x="58" y="236" type="curve" smooth="yes"/>
			<point x="58" y="79"/>
			<point x="147" y="-12"/>
		</contour>
	</outline>
	<anchor name="aboveLC" x="266" y="498"/>
	<anchor name="belowLC" x="264" y="-22"/>
	<anchor name="baseLC" x="264" y="0"/>
</glyph>
<glyph name="d" format="2">
	<unicode hex="0064"/>
	<advance width="532"/>
	<outline>
		<contour>
			<point x="254" y="-12" type="curve" smooth="yes"/>
			<point x="325" y="-12"/>
			<point x="380" y="26"/>
			<point x="421" y="68" type="curve"/>
			<point x="423" y="68" type="line"/>
			<point x="425" y="0" type="line"/>
			<point x="428" y="0" type="line"/>
			<point x="428" y="727" type="line"/>
			<point x="427" y="727" type="line"/>
			<point x="427" y="517" type="line"/>
			<point x="428" y="424" type="line"/>
			<point x="374" y="463"/>
			<point x="332" y="486"/>
			<point x="274" y="486" type="curve" smooth="yes"/>
			<point x="155" y="486"/>
			<point x="58" y="388"/>
			<point x="58" y="236" type="curve" smooth="yes"/>
			<point x="58" y="74"/>
			<point x="135" y="-12"/>
		</contour>
		<contour>
			<point x="248" y="-6" type="curve" smooth="yes"/>
			<point x="127" y="-6"/>
			<point x="61" y="95"/>
			<point x="61" y="235" type="curve" smooth="yes"/>
			<point x="61" y="366"/>
			<point x="148" y="480"/>
			<point x="263" y="480" type="curve" smooth="yes"/>
			<point x="318" y="480"/>
			<point x="366" y="460"/>
			<point x="427" y="406" type="curve"/>
			<point x="427" y="87" type="line"/>
			<point x="366" y="28"/>
			<point x="310" y="-6"/>
		</contour>
	</outline>
	<anchor name="aboveLC" x="373" y="730"/>
	<anchor name="belowLC" x="287" y="-22"/>
</glyph>
<glyph name="e" format="2">
	<unicode hex="0065"/>
	<advance width="468"/>
	<outline>
		<contour>
			<point x="268" y="-12" type="curve" smooth="yes"/>
			<point x="344" y="-12"/>
			<point x="377" y="13"/>
			<point x="410" y="32" type="curve"/>
			<point x="404" y="42" type="line"/>
			<point x="368" y="15"/>
			<point x="324" y="-4"/>
			<point x="266" y="-4" type="curve" smooth="yes"/>
			<point x="140" y="-4"/>
			<point x="60" y="104"/>
			<point x="64" y="246" type="curve"/>
			<point x="429" y="246" type="line"/>
			<point x="431" y="258"/>
			<point x="430" y="264"/>
			<point x="430" y="270" type="curve" smooth="yes"/>
			<point x="430" y="414"/>
			<point x="360" y="486"/>
			<point x="258" y="486" type="curve" smooth="yes"/>
			<point x="155" y="486"/>
			<point x="58" y="390"/>
			<point x="58" y="236" type="curve" smooth="yes"/>
			<point x="58" y="82"/>
			<point x="154" y="-12"/>
		</contour>
		<contour>
			<point x="64" y="257" type="line"/>
			<point x="74" y="394"/>
			<point x="161" y="478"/>
			<point x="257" y="478" type="curve" smooth="yes"/>
			<point x="354" y="478"/>
			<point x="423" y="408"/>
			<point x="423" y="257" type="curve"/>
		</contour>
	</outline>
	<anchor name="aboveLC" x="258" y="498"/>
	<anchor name="belowLC" x="253" y="-22"/>
	<anchor name="ogonekLC" x="378" y="0"/>
</glyph>
<glyph name="f" format="2">
	<unicode hex="0066"/>
	<advance width="230"/>
	<outline>
		<contour>
			<point x="102" y="0" type="line"/>
			<point x="104" y="0" type="line"/>
			<point x="104" y="608" type="line" smooth="yes"/>
			<point x="104" y="685"/>
			<point x="129" y="732"/>
			<point x="187" y="732" type="curve" smooth="yes"/>
			<point x="206" y="732"/>
			<point x="226" y="728"/>
			<point x="247" y="718" type="curve"/>
			<point x="253" y="724" type="line"/>
			<point x="231" y="734"/>
			<point x="210" y="739"/>
			<point x="195" y="739" type="curve" smooth="yes"/>
			<point x="143" y="739"/>
			<point x="102" y="705"/>
			<point x="102" y="614" type="curve" smooth="yes"/>
		</contour>
		<contour>
			<point x="36" y="467" type="line"/>
			<point x="224" y="467" type="line"/>
			<point x="224" y="474" type="line"/>
			<point x="100" y="474" type="line"/>
			<point x="36" y="470" type="line"/>
		</contour>
	</outline>
	<anchor name="aboveLC" x="208" y="740"/>
	<anchor name="belowLC" x="104" y="-22"/>
</glyph>
<glyph name="g" format="2">
	<unicode hex="0067"/>
	<advance width="467"/>
	<outline>
		<contour>
			<point x="252" y="-240" type="curve" smooth="yes"/>
			<point x="377" y="-240"/>
			<point x="458" y="-158"/>
			<point x="458" y="-84" type="curve" smooth="yes"/>
			<point x="458" y="-14"/>
			<point x="415" y="20"/>
			<point x="313" y="20" type="curve" smooth="yes"/>
			<point x="200" y="20" type="line" smooth="yes"/>
			<point x="122" y="20"/>
			<point x="102" y="54"/>
			<point x="102" y="93" type="curve" smooth="yes"/>
			<point x="102" y="131"/>
			<point x="125" y="156"/>
			<point x="150" y="176" type="curve"/>
			<point x="172" y="160"/>
			<point x="206" y="151"/>
			<point x="237" y="151" type="curve" smooth="yes"/>
			<point x="325" y="151"/>
			<point x="393" y="230"/>
			<point x="393" y="322" type="curve" smooth="yes"/>
			<point x="393" y="382"/>
			<point x="365" y="434"/>
			<point x="325" y="465" type="curve"/>
			<point x="450" y="465" type="line"/>
			<point x="450" y="474" type="line"/>
			<point x="295" y="474" type="line"/>
			<point x="283" y="479"/>
			<point x="262" y="486"/>
			<point x="237" y="486" type="curve" smooth="yes"/>
			<point x="148" y="486"/>
			<point x="83" y="411"/>
			<point x="83" y="320" type="curve" smooth="yes"/>
			<point x="83" y="262"/>
			<point x="112" y="214"/>
			<point x="141" y="188" type="curve"/>
			<point x="141" y="184" type="line"/>
			<point x="124" y="172"/>
			<point x="90" y="143"/>
			<point x="90" y="97" type="curve" smooth="yes"/>
			<point x="90" y="62"/>
			<point x="108" y="36"/>
			<point x="131" y="23" type="curve"/>
			<point x="131" y="19" type="line"/>
			<point x="88" y="-15"/>
			<point x="59" y="-61"/>
			<point x="59" y="-104" type="curve" smooth="yes"/>
			<point x="59" y="-182"/>
			<point x="128" y="-240"/>
		</contour>
		<contour>
			<point x="237" y="164" type="curve" smooth="yes"/>
			<point x="159" y="164"/>
			<point x="89" y="229"/>
			<point x="89" y="320" type="curve" smooth="yes"/>
			<point x="89" y="414"/>
			<point x="157" y="475"/>
			<point x="237" y="475" type="curve" smooth="yes"/>
			<point x="317" y="475"/>
			<point x="384" y="413"/>
			<point x="384" y="320" type="curve" smooth="yes"/>
			<point x="384" y="229"/>
			<point x="314" y="164"/>
		</contour>
		<contour>
			<point x="249" y="-227" type="curve" smooth="yes"/>
			<point x="133" y="-227"/>
			<point x="69" y="-177"/>
			<point x="69" y="-107" type="curve" smooth="yes"/>
			<point x="69" y="-66"/>
			<point x="92" y="-20"/>
			<point x="147" y="16" type="curve"/>
			<point x="176" y="9"/>
			<point x="203" y="7"/>
			<point x="202" y="7" type="curve" smooth="yes"/>
			<point x="327" y="7" type="line" smooth="yes"/>
			<point x="409" y="7"/>
			<point x="452" y="-18"/>
			<point x="452" y="-80" type="curve" smooth="yes"/>
			<point x="452" y="-152"/>
			<point x="374" y="-227"/>
		</contour>
	</outline>
	<anchor name="aboveLC" x="242" y="498"/>
	<anchor name="belowLC" x="250" y="-230"/>
</glyph>
<glyph name="h" format="2">
	<unicode hex="0068"/>
	<advance width="510"/>
	<outline>
		<contour>
			<point x="104" y="0" type="line"/>
			<point x="105" y="0" type="line"/>
			<point x="105" y="374" type="line"/>
			<point x="174" y="446"/>
			<point x="224" y="481"/>
			<point x="289" y="481" type="curve" smooth="yes"/>
			<point x="381" y="481"/>
			<point x="418" y="422"/>
			<point x="418" y="308" type="curve" smooth="yes"/>
			<point x="418" y="0" type="line"/>
			<point x="420" y="0" type="line"/>
			<point x="420" y="308" type="line" smooth="yes"/>
			<point x="420" y="432"/>
			<point x="374" y="486"/>
			<point x="278" y="486" type="curve" smooth="yes"/>
			<point x="213" y="486"/>
			<point x="162" y="447"/>
			<point x="107" y="390" type="curve"/>
			<point x="105" y="503" type="line"/>
			<point x="105" y="727" type="line"/>
			<point x="104" y="727" type="line"/>
		</contour>
	</outline>
	<anchor name="aboveLC" x="106" y="730"/>
	<anchor name="belowLC" x="277" y="-22"/>
</glyph>
<glyph name="i" format="2">
	<unicode hex="0069"/>
	<advance width="209"/>
	<outline>
		<contour>
			<point x="104" y="0" type="line"/>
			<point x="105" y="0" type="line"/>
			<point x="105" y="474" type="line"/>
			<point x="104" y="474" type="line"/>
		</contour>
		<contour>
			<point x="106" y="608" type="curve" smooth="yes"/>
			<point x="116" y="608"/>
			<point x="127" y="617"/>
			<point x="127" y="631" type="curve" smooth="yes"/>
			<point x="127" y="648"/>
			<point x="116" y="655"/>
			<point x="106" y="655" type="curve" smooth="yes"/>
			<point x="95" y="655"/>
			<point x="84" y="648"/>
			<point x="84" y="631" type="curve" smooth="yes"/>
			<point x="84" y="617"/>
			<point x="95" y="608"/>
		</contour>
	</outline>
	<anchor name="aboveLC" x="103" y="660"/>
	<anchor name="belowLC" x="103" y="-22"/>
	<anchor name="ogonekLC" x="118" y="0"/>
</glyph>
<glyph name="j" format="2">
	<unicode hex="006A"/>
	<advance width="208"/>
	<outline>
		<contour>
			<point x="26" y="-243" type="curve" smooth="yes"/>
			<point x="75" y="-243"/>
			<point x="105" y="-216"/>
			<point x="105" y="-128" type="curve" smooth="yes"/>
			<point x="105" y="474" type="line"/>
			<point x="103" y="474" type="line"/>
			<point x="103" y="-122" type="line" smooth="yes"/>
			<point x="103" y="-185"/>
			<point x="94" y="-236"/>
			<point x="34" y="-236" type="curve" smooth="yes"/>
			<point x="12" y="-236"/>
			<point x="-10" y="-230"/>
			<point x="-21" y="-226" type="curve"/>
			<point x="-25" y="-232" type="line"/>
			<point x="-12" y="-237"/>
			<point x="11" y="-243"/>
		</contour>
		<contour>
			<point x="105" y="608" type="curve" smooth="yes"/>
			<point x="116" y="608"/>
			<point x="127" y="617"/>
			<point x="127" y="631" type="curve" smooth="yes"/>
			<point x="127" y="648"/>
			<point x="116" y="655"/>
			<point x="105" y="655" type="curve" smooth="yes"/>
			<point x="95" y="655"/>
			<point x="84" y="648"/>
			<point x="84" y="631" type="curve" smooth="yes"/>
			<point x="84" y="617"/>
			<point x="95" y="608"/>
		</contour>
	</outline>
	<anchor name="aboveLC" x="105" y="660"/>
	<anchor name="belowLC" x="36" y="-226"/>
</glyph>
<glyph name="k" format="2">
	<unicode hex="006B"/>
	<advance width="429"/>
	<outline>
		<contour>
			<point x="104" y="0" type="line"/>
			<point x="106" y="0" type="line"/>
			<point x="106" y="134" type="line"/>
			<point x="232" y="284" type="line"/>
			<point x="412" y="0" type="line"/>
			<point x="415" y="0" type="line"/>
			<point x="234" y="290" type="line"/>
			<point x="384" y="474" type="line"/>
			<point x="378" y="474" type="line"/>
			<point x="108" y="144" type="line"/>
			<point x="106" y="144" type="line"/>
			<point x="106" y="727" type="line"/>
			<point x="104" y="727" type="line"/>
		</contour>
	</outline>
	<anchor name="aboveLC" x="108" y="730"/>
	<anchor name="belowLC" x="242" y="-22"/>
</glyph>
<glyph name="l" format="2">
	<unicode hex="006C"/>
	<advance width="216"/>
	<outline>
		<contour>
			<point x="130" y="-12" type="curve" smooth="yes"/>
			<point x="137" y="-12"/>
			<point x="139" y="-11"/>
			<point x="145" y="-10" type="curve"/>
			<point x="142" y="-4" type="line"/>
			<point x="131" y="-6"/>
			<point x="127" y="-6"/>
			<point x="124" y="-6" type="curve" smooth="yes"/>
			<point x="112" y="-6"/>
			<point x="105" y="4"/>
			<point x="105" y="21" type="curve" smooth="yes"/>
			<point x="105" y="727" type="line"/>
			<point x="104" y="727" type="line"/>
			<point x="104" y="27" type="line" smooth="yes"/>
			<point x="104" y="-6"/>
			<point x="118" y="-12"/>
		</contour>
	</outline>
	<anchor name="aboveLC" x="103" y="730"/>
	<anchor name="belowLC" x="132" y="-22"/>
</glyph>
<glyph name="m" format="2">
	<unicode hex="006D"/>
	<advance width="794"/>
	<outline>
		<contour>
			<point x="104" y="0" type="line"/>
			<point x="105" y="0" type="line"/>
			<point x="105" y="374" type="line"/>
			<point x="167" y="445"/>
			<point x="222" y="481"/>
			<point x="274" y="481" type="curve" smooth="yes"/>
			<point x="360" y="481"/>
			<point x="400" y="422"/>
			<point x="400" y="308" type="curve" smooth="yes"/>
			<point x="400" y="0" type="line"/>
			<point x="402" y="0" type="line"/>
			<point x="402" y="374" type="line"/>
			<point x="464" y="445"/>
			<point x="517" y="481"/>
			<point x="570" y="481" type="curve" smooth="yes"/>
			<point x="657" y="481"/>
			<point x="697" y="422"/>
			<point x="697" y="308" type="curve" smooth="yes"/>
			<point x="697" y="0" type="line"/>
			<point x="699" y="0" type="line"/>
			<point x="699" y="308" type="line" smooth="yes"/>
			<point x="699" y="432"/>
			<point x="651" y="486"/>
			<point x="560" y="486" type="curve" smooth="yes"/>
			<point x="509" y="486"/>
			<point x="453" y="448"/>
			<point x="394" y="382" type="curve"/>
			<point x="380" y="443"/>
			<point x="343" y="486"/>
			<point x="263" y="486" type="curve" smooth="yes"/>
			<point x="214" y="486"/>
			<point x="156" y="447"/>
			<point x="111" y="395" type="curve"/>
			<point x="109" y="395" type="line"/>
			<point x="107" y="474" type="line"/>
			<point x="104" y="474" type="line"/>
		</contour>
	</outline>
	<anchor name="aboveLC" x="396" y="498"/>
	<anchor name="belowLC" x="408" y="-22"/>
</glyph>
<glyph name="n" format="2">
	<unicode hex="006E"/>
	<advance width="515"/>
	<outline>
		<contour>
			<point x="104" y="0" type="line"/>
			<point x="105" y="0" type="line"/>
			<point x="105" y="374" type="line"/>
			<point x="174" y="446"/>
			<point x="224" y="481"/>
			<point x="289" y="481" type="curve" smooth="yes"/>
			<point x="381" y="481"/>
			<point x="418" y="422"/>
			<point x="418" y="308" type="curve" smooth="yes"/>
			<point x="418" y="0" type="line"/>
			<point x="420" y="0" type="line"/>
			<point x="420" y="308" type="line" smooth="yes"/>
			<point x="420" y="432"/>
			<point x="374" y="486"/>
			<point x="278" y="486" type="curve" smooth="yes"/>
			<point x="213" y="486"/>
			<point x="163" y="447"/>
			<point x="111" y="394" type="curve"/>
			<point x="109" y="394" type="line"/>
			<point x="107" y="474" type="line"/>
			<point x="104" y="474" type="line"/>
		</contour>
	</outline>
	<anchor name="aboveLC" x="271" y="498"/>
	<anchor name="belowLC" x="262" y="-22"/>
</glyph>
<glyph name="o" format="2">
	<unicode hex="006F"/>
	<advance width="526"/>
	<outline>
		<contour>
			<point x="263" y="-12" type="curve" smooth="yes"/>
			<point x="374" y="-12"/>
			<point x="468" y="79"/>
			<point x="468" y="236" type="curve" smooth="yes"/>
			<point x="468" y="394"/>
			<point x="374" y="486"/>
			<point x="263" y="486" type="curve" smooth="yes"/>
			<point x="152" y="486"/>
			<point x="58" y="394"/>
			<point x="58" y="236" type="curve" smooth="yes"/>
			<point x="58" y="79"/>
			<point x="152" y="-12"/>
		</contour>
		<contour>
			<point x="263" y="-6" type="curve" smooth="yes"/>
			<point x="151" y="-6"/>
			<point x="62" y="92"/>
			<point x="62" y="236" type="curve" smooth="yes"/>
			<point x="62" y="379"/>
			<point x="151" y="480"/>
			<point x="263" y="480" type="curve" smooth="yes"/>
			<point x="375" y="480"/>
			<point x="465" y="379"/>
			<point x="465" y="236" type="curve" smooth="yes"/>
			<point x="465" y="92"/>
			<point x="375" y="-6"/>
		</contour>
	</outline>
	<anchor name="aboveLC" x="263" y="498"/>
	<anchor name="belowLC" x="263" y="-22"/>
	<anchor name="hornLC" x="355" y="474"/>
	<anchor name="ogonekLC" x="308" y="0"/>
</glyph>
<glyph name="p" format="2">
	<unicode hex="0070"/>
	<advance width="532"/>
	<outline>
		<contour>
			<point x="104" y="-231" type="line"/>
			<point x="105" y="-231" type="line"/>
			<point x="105" y="-43" type="line"/>
			<point x="106" y="50" type="line"/>
			<point x="162" y="11"/>
			<point x="215" y="-12"/>
			<point x="262" y="-12" type="curve" smooth="yes"/>
			<point x="377" y="-12"/>
			<point x="474" y="84"/>
			<point x="474" y="244" type="curve" smooth="yes"/>
			<point x="474" y="390"/>
			<point x="415" y="486"/>
			<point x="283" y="486" type="curve" smooth="yes"/>
			<point x="221" y="486"/>
			<point x="161" y="447"/>
			<point x="111" y="408" type="curve"/>
			<point x="109" y="408" type="line"/>
			<point x="107" y="474" type="line"/>
			<point x="104" y="474" type="line"/>
		</contour>
		<contour>
			<point x="272" y="-6" type="curve" smooth="yes"/>
			<point x="231" y="-6"/>
			<point x="171" y="14"/>
			<point x="105" y="68" type="curve"/>
			<point x="105" y="386" type="line"/>
			<point x="175" y="446"/>
			<point x="236" y="480"/>
			<point x="291" y="480" type="curve" smooth="yes"/>
			<point x="423" y="480"/>
			<point x="471" y="374"/>
			<point x="471" y="244" type="curve" smooth="yes"/>
			<point x="471" y="102"/>
			<point x="389" y="-6"/>
		</contour>
	</outline>
	<anchor name="aboveLC" x="271" y="498"/>
	<anchor name="belowLC" x="100" y="-218"/>
</glyph>
<glyph name="q" format="2">
	<unicode hex="0071"/>
	<advance width="532"/>
	<outline>
		<contour>
			<point x="427" y="-231" type="line"/>
			<point x="428" y="-231" type="line"/>
			<point x="428" y="474" type="line"/>
			<point x="424" y="474" type="line"/>
			<point x="422" y="431" type="line"/>
			<point x="420" y="431" type="line"/>
			<point x="373" y="463"/>
			<point x="333" y="486"/>
			<point x="274" y="486" type="curve" smooth="yes"/>
			<point x="155" y="486"/>
			<point x="58" y="388"/>
			<point x="58" y="236" type="curve" smooth="yes"/>
			<point x="58" y="74"/>
			<point x="135" y="-12"/>
			<point x="254" y="-12" type="curve" smooth="yes"/>
			<point x="326" y="-12"/>
			<point x="381" y="27"/>
			<point x="428" y="72" type="curve"/>
			<point x="427" y="-32" type="line"/>
		</contour>
		<contour>
			<point x="248" y="-6" type="curve" smooth="yes"/>
			<point x="127" y="-6"/>
			<point x="61" y="95"/>
			<point x="61" y="235" type="curve" smooth="yes"/>
			<point x="61" y="366"/>
			<point x="148" y="480"/>
			<point x="263" y="480" type="curve" smooth="yes"/>
			<point x="318" y="480"/>
			<point x="366" y="460"/>
			<point x="427" y="406" type="curve"/>
			<point x="427" y="87" type="line"/>
			<point x="366" y="28"/>
			<point x="310" y="-6"/>
		</contour>
	</outline>
	<anchor name="aboveLC" x="260" y="498"/>
	<anchor name="belowLC" x="420" y="-218"/>
</glyph>
<glyph name="r" format="2">
	<unicode hex="0072"/>
	<advance width="284"/>
	<outline>
		<contour>
			<point x="104" y="0" type="line"/>
			<point x="105" y="0" type="line"/>
			<point x="105" y="343" type="line"/>
			<point x="146" y="443"/>
			<point x="200" y="480"/>
			<point x="245" y="480" type="curve" smooth="yes"/>
			<point x="262" y="480"/>
			<point x="269" y="478"/>
			<point x="284" y="472" type="curve"/>
			<point x="288" y="476" type="line"/>
			<point x="272" y="484"/>
			<point x="259" y="486"/>
			<point x="246" y="486" type="curve" smooth="yes"/>
			<point x="186" y="486"/>
			<point x="142" y="439"/>
			<point x="111" y="383" type="curve"/>
			<point x="109" y="383" type="line"/>
			<point x="107" y="474" type="line"/>
			<point x="104" y="474" type="line"/>
		</contour>
	</outline>
	<anchor name="aboveLC" x="179" y="498"/>
	<anchor name="belowLC" x="103" y="-22"/>
</glyph>
<glyph name="s" format="2">
	<unicode hex="0073"/>
	<advance width="390"/>
	<outline>
		<contour>
			<point x="207" y="-12" type="curve" smooth="yes"/>
			<point x="299" y="-12"/>
			<point x="352" y="48"/>
			<point x="352" y="113" type="curve" smooth="yes"/>
			<point x="352" y="208"/>
			<point x="264" y="228"/>
			<point x="185" y="258" type="curve" smooth="yes"/>
			<point x="126" y="281"/>
			<point x="65" y="306"/>
			<point x="65" y="370" type="curve" smooth="yes"/>
			<point x="65" y="422"/>
			<point x="105" y="477"/>
			<point x="195" y="477" type="curve" smooth="yes"/>
			<point x="249" y="477"/>
			<point x="283" y="456"/>
			<point x="314" y="433" type="curve"/>
			<point x="320" y="441" type="line"/>
			<point x="288" y="468"/>
			<point x="240" y="486"/>
			<point x="199" y="486" type="curve" smooth="yes"/>
			<point x="105" y="486"/>
			<point x="58" y="429"/>
			<point x="58" y="369" type="curve" smooth="yes"/>
			<point x="58" y="287"/>
			<point x="143" y="262"/>
			<point x="220" y="236" type="curve" smooth="yes"/>
			<point x="278" y="216"/>
			<point x="345" y="184"/>
			<point x="345" y="113" type="curve" smooth="yes"/>
			<point x="345" y="52"/>
			<point x="298" y="-4"/>
			<point x="209" y="-4" type="curve" smooth="yes"/>
			<point x="129" y="-4"/>
			<point x="85" y="27"/>
			<point x="46" y="61" type="curve"/>
			<point x="37" y="53" type="line"/>
			<point x="77" y="18"/>
			<point x="134" y="-12"/>
		</contour>
	</outline>
	<anchor name="aboveLC" x="199" y="498"/>
	<anchor name="belowLC" x="212" y="-22"/>
	<anchor name="baseLC" x="212" y="0"/>
</glyph>
<glyph name="t" format="2">
	<unicode hex="0074"/>
	<advance width="282"/>
	<outline>
		<contour>
			<point x="209" y="-12" type="curve" smooth="yes"/>
			<point x="217" y="-12"/>
			<point x="246" y="-4"/>
			<point x="274" y="6" type="curve"/>
			<point x="267" y="12" type="line"/>
			<point x="248" y="4"/>
			<point x="220" y="-5"/>
			<point x="202" y="-5" type="curve" smooth="yes"/>
			<point x="124" y="-5"/>
			<point x="113" y="44"/>
			<point x="113" y="107" type="curve" smooth="yes"/>
			<point x="113" y="467" type="line"/>
			<point x="260" y="467" type="line"/>
			<point x="260" y="474" type="line"/>
			<point x="113" y="474" type="line"/>
			<point x="113" y="616" type="line"/>
			<point x="110" y="616" type="line"/>
			<point x="109" y="474" type="line"/>
			<point x="33" y="470" type="line"/>
			<point x="33" y="467" type="line"/>
			<point x="111" y="467" type="line"/>
			<point x="111" y="113" type="line" smooth="yes"/>
			<point x="111" y="39"/>
			<point x="129" y="-12"/>
		</contour>
	</outline>
	<anchor name="aboveLC" x="114" y="623"/>
	<anchor name="belowLC" x="184" y="-22"/>
	<anchor name="baseLC" x="194" y="0"/>
</glyph>
<glyph name="u" format="2">
	<unicode hex="0075"/>
	<advance width="513"/>
	<outline>
		<contour>
			<point x="236" y="-12" type="curve" smooth="yes"/>
			<point x="302" y="-12"/>
			<point x="353" y="28"/>
			<point x="402" y="85" type="curve"/>
			<point x="404" y="85" type="line"/>
			<point x="406" y="0" type="line"/>
			<point x="410" y="0" type="line"/>
			<point x="410" y="474" type="line"/>
			<point x="408" y="474" type="line"/>
			<point x="408" y="108" type="line"/>
			<point x="340" y="28"/>
			<point x="291" y="-8"/>
			<point x="226" y="-8" type="curve" smooth="yes"/>
			<point x="134" y="-8"/>
			<point x="96" y="52"/>
			<point x="96" y="166" type="curve" smooth="yes"/>
			<point x="96" y="474" type="line"/>
			<point x="95" y="474" type="line"/>
			<point x="95" y="166" type="line" smooth="yes"/>
			<point x="95" y="42"/>
			<point x="141" y="-12"/>
		</contour>
	</outline>
	<anchor name="aboveLC" x="256" y="498"/>
	<anchor name="belowLC" x="274" y="-22"/>
	<anchor name="hornLC" x="388" y="484"/>
	<anchor name="ogonekLC" x="394" y="0"/>
</glyph>
<glyph name="v" format="2">
	<unicode hex="0076"/>
	<advance width="398"/>
	<outline>
		<contour>
			<point x="198" y="0" type="line"/>
			<point x="201" y="0" type="line"/>
			<point x="386" y="474" type="line"/>
			<point x="380" y="474" type="line"/>
			<point x="254" y="145" type="line" smooth="yes"/>
			<point x="237" y="100"/>
			<point x="218" y="53"/>
			<point x="201" y="13" type="curve"/>
			<point x="197" y="13" type="line"/>
			<point x="180" y="53"/>
			<point x="161" y="100"/>
			<point x="144" y="145" type="curve" smooth="yes"/>
			<point x="18" y="474" type="line"/>
			<point x="12" y="474" type="line"/>
		</contour>
	</outline>
	<anchor name="aboveLC" x="200" y="498"/>
	<anchor name="belowLC" x="200" y="-22"/>
</glyph>
<glyph name="w" format="2">
	<unicode hex="0077"/>
	<advance width="647"/>
	<outline>
		<contour>
			<point x="173" y="0" type="line"/>
			<point x="179" y="0" type="line"/>
			<point x="278" y="337" type="line"/>
			<point x="296" y="383"/>
			<point x="309" y="429"/>
			<point x="322" y="473" type="curve"/>
			<point x="326" y="473" type="line"/>
			<point x="341" y="429"/>
			<point x="351" y="386"/>
			<point x="366" y="340" type="curve"/>
			<point x="467" y="0" type="line"/>
			<point x="478" y="0" type="line"/>
			<point x="623" y="474" type="line"/>
			<point x="616" y="474" type="line"/>
			<point x="516" y="129" type="line"/>
			<point x="503" y="86"/>
			<point x="489" y="48"/>
			<point x="476" y="8" type="curve"/>
			<point x="472" y="8" type="line"/>
			<point x="460" y="48"/>
			<point x="447" y="86"/>
			<point x="435" y="129" type="curve"/>
			<point x="334" y="474" type="line"/>
			<point x="313" y="474" type="line"/>
			<point x="212" y="129" type="line"/>
			<point x="200" y="86"/>
			<point x="187" y="48"/>
			<point x="174" y="8" type="curve"/>
			<point x="170" y="8" type="line"/>
			<point x="160" y="48"/>
			<point x="146" y="86"/>
			<point x="134" y="129" type="curve"/>
			<point x="31" y="474" type="line"/>
			<point x="24" y="474" type="line"/>
		</contour>
	</outline>
	<anchor name="aboveLC" x="323" y="498"/>
	<anchor name="belowLC" x="323" y="-22"/>
</glyph>
<glyph name="x" format="2">
	<unicode hex="0078"/>
	<advance width="362"/>
	<outline>
		<contour>
			<point x="14" y="0" type="line"/>
			<point x="17" y="0" type="line"/>
			<point x="117" y="152" type="line"/>
			<point x="139" y="182"/>
			<point x="158" y="212"/>
			<point x="180" y="240" type="curve"/>
			<point x="184" y="240" type="line"/>
			<point x="205" y="212"/>
			<point x="226" y="182"/>
			<point x="244" y="152" type="curve"/>
			<point x="344" y="0" type="line"/>
			<point x="348" y="0" type="line"/>
			<point x="182" y="250" type="line"/>
			<point x="333" y="474" type="line"/>
			<point x="330" y="474" type="line"/>
			<point x="239" y="334" type="line"/>
			<point x="219" y="308"/>
			<point x="203" y="283"/>
			<point x="183" y="258" type="curve"/>
			<point x="179" y="258" type="line"/>
			<point x="160" y="283"/>
			<point x="141" y="308"/>
			<point x="124" y="334" type="curve"/>
			<point x="33" y="474" type="line"/>
			<point x="29" y="474" type="line"/>
			<point x="181" y="248" type="line"/>
		</contour>
	</outline>
	<anchor name="aboveLC" x="181" y="498"/>
	<anchor name="belowLC" x="181" y="-22"/>
</glyph>
<glyph name="y" format="2">
	<unicode hex="0079"/>
	<advance width="400"/>
	<outline>
		<contour>
			<point x="53" y="-229" type="curve" smooth="yes"/>
			<point x="126" y="-229"/>
			<point x="173" y="-145"/>
			<point x="192" y="-83" type="curve"/>
			<point x="388" y="474" type="line"/>
			<point x="383" y="474" type="line"/>
			<point x="263" y="135" type="line" smooth="yes"/>
			<point x="249" y="97"/>
			<point x="232" y="44"/>
			<point x="214" y="3" type="curve"/>
			<point x="210" y="3" type="line"/>
			<point x="191" y="43"/>
			<point x="169" y="96"/>
			<point x="153" y="135" type="curve" smooth="yes"/>
			<point x="18" y="474" type="line"/>
			<point x="12" y="474" type="line"/>
			<point x="212" y="-18" type="line"/>
			<point x="196" y="-66" type="line" smooth="yes"/>
			<point x="167" y="-154"/>
			<point x="121" y="-220"/>
			<point x="58" y="-220" type="curve" smooth="yes"/>
			<point x="43" y="-220"/>
			<point x="27" y="-216"/>
			<point x="16" y="-211" type="curve"/>
			<point x="13" y="-219" type="line"/>
			<point x="23" y="-225"/>
			<point x="40" y="-229"/>
		</contour>
	</outline>
	<anchor name="aboveLC" x="214" y="498"/>
	<anchor name="belowLC" x="166" y="-242"/>
</glyph>
<glyph name="z" format="2">
	<unicode hex="007A"/>
	<advance width="380"/>
	<outline>
		<contour>
			<point x="23" y="0" type="line"/>
			<point x="354" y="0" type="line"/>
			<point x="354" y="7" type="line"/>
			<point x="28" y="7" type="line"/>
			<point x="343" y="473" type="line"/>
			<point x="343" y="474" type="line"/>
			<point x="57" y="474" type="line"/>
			<point x="57" y="467" type="line"/>
			<point x="338" y="467" type="line"/>
			<point x="23" y="1" type="line"/>
		</contour>
	</outline>
	<anchor name="aboveLC" x="209" y="498"/>
	<anchor name="belowLC" x="206" y="-22"/>
</glyph>
<glyph name=".notdef" format="2">
	<advance width="608"/>
	<outline>
		<contour>
			<point x="100" y="0" type="line"/>
			<point x="508" y="0" type="line"/>
			<point x="508" y="660" type="line"/>
			<point x="100" y="660" type="line"/>
		</contour>
		<contour>
			<point x="115" y="18" type="line"/>
			<point x="232" y="218" type="line"/>
			<point x="302" y="326" type="line"/>
			<point x="306" y="326" type="line"/>
			<point x="373" y="218" type="line"/>
			<point x="488" y="18" type="line"/>
		</contour>
		<contour>
			<point x="302" y="354" type="line"/>
			<point x="243" y="446" type="line"/>
			<point x="134" y="640" type="line"/>
			<point x="472" y="640" type="line"/>
			<point x="363" y="446" type="line"/>
			<point x="306" y="354" type="line"/>
		</contour>
		<contour>
			<point x="123" y="54" type="line"/>
			<point x="123" y="630" type="line"/>
			<point x="292" y="340" type="line"/>
		</contour>
		<contour>
			<point x="482" y="54" type="line"/>
			<point x="316" y="340" type="line"/>
			<point x="482" y="630" type="line"/>
		</contour>
	</outline>
</glyph>
